<svg width="46" height="65" fill="none" xmlns="http://www.w3.org/2000/svg"><path d="M28.355 63.506A20.103 20.103 0 012.952 45.919L2.04 35.682C.944 23.373 10.641 12.774 23 12.774s22.056 10.6 20.958 22.91l-.908 10.19a20.166 20.166 0 01-14.694 17.632z" fill="#4353AD"/><path d="M38.222 56.78l2.708-30.382c.469-5.255-3.671-9.78-8.947-9.78A8.983 8.983 0 0023 25.6v19.606c0 7.941 7.57 13.696 15.222 11.572z" fill="#485FB5"/><path d="M23 49.045a.017.017 0 00-.021-.016h-.009l-4.481-1.212a2.863 2.863 0 01-2.105-2.51 2.87 2.87 0 00-2.859-2.608 2.885 2.885 0 00-2.875 3.134l.214 2.408a5.09 5.09 0 003.708 4.453l8.394 2.333h.015A.027.027 0 0023 55v-5.956zM11.716 22.383a2.882 2.882 0 000 5.765h8.402a2.882 2.882 0 000-5.765h-8.402zM9.597 34.05a6.33 6.33 0 006.304 5.765h4.216a2.883 2.883 0 000-5.765H9.598z" fill="#EDEDED"/><path d="M27.565 0h5.706a1.27 1.27 0 010 2.539h-2.535a.254.254 0 100 .508h1.775c1.12 0 2.03.908 2.03 2.029v.89a2.92 2.92 0 01-2.92 2.92h-2.723a1.333 1.333 0 110-2.665h2.472a.254.254 0 000-.508h-1.775a2.029 2.029 0 01-2.03-2.03V0zm-8.37 0h5.706a1.27 1.27 0 010 2.539h-2.535a.254.254 0 100 .508h1.775c1.12 0 2.03.908 2.03 2.029v.89a2.92 2.92 0 01-2.92 2.92h-2.722a1.333 1.333 0 010-2.665H23a.254.254 0 100-.508h-1.775a2.03 2.03 0 01-2.03-2.03V0zm-8.37 3.487A3.487 3.487 0 0114.314 0h2.028a1.46 1.46 0 110 2.92h-1.138a1.46 1.46 0 100 2.92h1.138a1.46 1.46 0 110 2.92h-2.028a3.487 3.487 0 01-3.487-3.488V3.487z" fill="#100F0D"/><path d="M36.366 34.051l.371-4.164a6.892 6.892 0 00-6.865-7.504h-4.01a2.882 2.882 0 000 5.765h2.008a2.952 2.952 0 010 5.903h-2.007a2.882 2.882 0 100 5.765h.505a3.387 3.387 0 013.373 3.69l-.078.876a4.192 4.192 0 01-3.082 3.674l-1.47.397a2.882 2.882 0 101.522 5.56l7.21-2c.567-.158.977-.65 1.029-1.236l1.354-15.178.14-1.548z" fill="#fff"/></svg>