<svg width="46" height="65" fill="none" xmlns="http://www.w3.org/2000/svg"><path d="M17.484 63.499A19.996 19.996 0 012.945 46.005L2.02 35.571C.935 23.32 10.587 12.774 22.886 12.774c12.3 0 21.953 10.547 20.866 22.799L42.83 45.96A20.059 20.059 0 0128.239 63.5a20.01 20.01 0 01-10.755-.001z" fill="#E53D20"/><path d="M22.887 50.694c0 5.18 4.942 8.932 9.931 7.54a7.828 7.828 0 005.695-6.848l2.221-25.037c.465-5.23-3.656-9.732-8.906-9.732a8.941 8.941 0 00-8.94 8.941v25.136z" fill="#F15123"/><path d="M22.887 34.051h-7.583l-.523-5.903h8.106v-5.765H8.517l.138 1.546 1.409 15.887h12.823V34.05zm0 14.972l-.025.007-6.382-1.734-.408-4.598h-5.753l.803 9.052 11.739 3.279.026-.008v-5.998z" fill="#EDEDED"/><path d="M4.259 0H7.17v2.895h2.664V0h2.912v8.765H9.835V5.83H7.171v2.935H4.26V0zm12.318 2.907h-2.564V0h8.041v2.907H19.49v5.858h-2.912V2.907zm6.753-.964C23.33.87 24.2 0 25.273 0h.177c.57 0 1.097.297 1.392.784a1.628 1.628 0 002.784 0A1.627 1.627 0 0131.017 0h.178c1.074 0 1.944.87 1.944 1.943v5.372c0 .801-.65 1.45-1.45 1.45h-.464a.986.986 0 01-.987-.986v-.165c0-.936-1.22-1.295-1.726-.507l-.264.41a.046.046 0 01-.077 0l-.263-.41c-.507-.788-1.728-.43-1.728.507v.165a.987.987 0 01-.987.986h-.438a1.425 1.425 0 01-1.425-1.424V1.943zm11.258-.486a1.457 1.457 0 112.913 0V3.82c0 1.131.917 2.048 2.048 2.048h.599a1.449 1.449 0 110 2.897h-2.056a3.504 3.504 0 01-3.504-3.504V1.457z" fill="#100F0D"/><path d="M25.75 34.051a2.882 2.882 0 000 5.765h.49a3.372 3.372 0 013.357 3.67l-.08.896a4.194 4.194 0 01-3.078 3.676l-1.445.393a2.881 2.881 0 101.529 5.556l7.15-1.994a1.41 1.41 0 001.028-1.236l1.347-15.178a1.419 1.419 0 00-1.404-1.548H25.75zm-2.883-11.668a5.765 5.765 0 005.765 5.765h8.059a.02.02 0 00.02-.019l.113-1.277.261-2.923a1.421 1.421 0 00-1.415-1.546H22.867z" fill="#fff"/></svg>