<svg width="162" height="37" fill="none" xmlns="http://www.w3.org/2000/svg"><path fill-rule="evenodd" clip-rule="evenodd" d="M154.373 2.707l6.766.037s-12.579 17.045-13.606 18.434c-.334.45-.841.935-1.098 1.536-.649 1.512-1.316 4.828-1.316 4.828l-6.191.031s.963-3.456.924-5.298c-.035-1.608-.856-3.214-1.317-4.828-.465-1.632-1.097-4.828-1.097-4.828h6.364l.878 3.512 9.693-13.424z" fill="#1A1918"/><path fill-rule="evenodd" clip-rule="evenodd" d="M141.561 6.301c2.417 1.457-.558 4.943-3.38 4.972-1.651.016-3.377.03-4.694.03a3.858 3.858 0 00-3.76 2.994l-2.539 11.05a2.828 2.828 0 01-2.756 2.195 2.821 2.821 0 01-2.769-3.382c1.075-5.288 3.099-15.153 3.705-17.466.272-1.036 1.861-.858 4.544-.858h4.286c2.768 0 6.003-.353 7.363.465zm-28.936 7.894c1.368.01 2.514-1.085 1.77-2.234-.667-1.03-1.284-1.268-3.039-1.323-.888-.028-1.614.067-2.207.241-2.422.713-.65 3.29 1.874 3.306l1.602.01zm7.75-4.191c1.379 4.973-4.36 8.684-9.52 8.734-.84.009-1.636.023-2.33.044-1.232.037-2.706-.134-3.073.439-.516.803.188 2.039.786 2.56.687.602 2.025.67 2.506.732 1.716.217 4.434.233 6.595.2 1.687-.026 2.982 1.528 2.611 3.173a2.497 2.497 0 01-2.368 1.96c-3.033.074-8.906.09-12.325-.725-.939-.224-1.819-.676-2.414-1.317-.162-.175-.303-.414-.456-.62-.123-.165-.48-.707-.64-1.136-1.087-2.894.126-8.44 1.316-11.411.138-.345.311-.781.494-1.152.228-.463.421-.985.603-1.262.123-.19.275-.314.402-.494.147-.213.318-.419.476-.603.439-.51.937-.87 1.536-1.317 1.982-1.483 5.568-2.636 9.876-2.194 1.621.166 4.071.746 5.267 2.414.32.445.478 1.33.658 1.975zm-26.67-2.105a2.734 2.734 0 012.642-2.096 2.728 2.728 0 012.69 3.292c-.655 3.097-1.672 7.885-2.605 12.229a7.88 7.88 0 01-7.714 6.218c-4.448 0-8.41.551-10.094-2.633-1.635-3.092-.075-8.177.658-11.631.294-1.389.773-3.6 1.132-5.252a2.808 2.808 0 012.72-2.21A2.823 2.823 0 0185.921 9.2c-.523 2.58-1.21 6.04-1.593 8.246-.241 1.392-.739 2.702-.22 3.731.495.979 1.186 1.049 3.293 1.097 1.675.04 3.127-1.144 3.519-2.774l2.784-11.602zM68.31 16.35c.578-2.059 1.423-4.29 1.316-6.145-.116-1.984-1.78-3.79-2.853-4.17-3.232-1.14-6.259.455-7.461 1.756-1.557 1.686-2.083 3.654-2.634 6.364-.41 2.013-.746 4.137 0 5.706.677 1.423 2.09 1.957 3.906 2.143 3.568.365 6.751-2.202 7.725-5.654zm7.68-8.12c.49 3.555-.851 7.395-2.256 10.993-.606 1.55 1.02 1.918 2.096 3.188.112.165-1.141 5.265-1.578 5.278-1.352.035-5.83.073-7.699.073-6.094 0-11.795.397-14.703-2.634-1.18-1.23-1.997-3.342-2.195-4.828-.329-2.48.084-5.21.659-7.461.52-2.033 1.187-3.95 2.194-5.706C55.07 2.663 59.524-.656 66.992.11c1.449.15 3.53.784 4.828 1.536.09.053.404.303.477.347 1.755 1.117 3.355 3.784 3.693 6.237zM45.752 5.828c1.682.011 2.942 1.589 2.594 3.234-.253 1.196-1.31 2.021-2.533 2.021h-.616c-1.742 0-3.028-1.736-2.614-3.43.28-1.145 1.297-1.837 2.476-1.83l.693.005zm-4.782 8.984c.322-1.307 1.485-2.193 2.831-2.193 1.907 0 3.344 1.725 2.962 3.592A321.916 321.916 0 0143.95 28.64c-.753 3.013-1.256 5.212-3.292 6.803-.183.143-.288.075-.44.22-.375.357-2.11.772-3.072.877-.553.06-1.131.08-1.733.08-1.785-.002-3.041-1.86-2.584-3.586.348-1.316 1.663-1.913 2.922-2.43 2.427-.996 2.649-4.495 3.37-7.89.366-1.713 1.246-5.454 1.85-7.902z" fill="#1A1918"/><path fill-rule="evenodd" clip-rule="evenodd" d="M27.457 24.057c.058-.055.154.009.126.084-2.164 4.213-5.998 6.798-11.467 6.912-2.556.053-4.992-.603-6.584-1.316-3.434-1.543-6.322-4.404-7.9-7.462-2.233-4.324-2.66-10.317 1.85-14.85.116-.117.165-.096.085.049-.06.109-.138.242-.21.366-.109.19-.254.602-.318.811-3.39 10.615 7.055 19.712 17.21 18.672 2.335-.24 5.285-1.474 7.208-3.266z" fill="#21609B"/><path fill-rule="evenodd" clip-rule="evenodd" d="M21.565 19.422c1.605.011 2.8 1.456 1.255 1.895-1.52.431-3.274.558-5.205.3-4.494-.601-8.776-5.124-9.217-9.656-.208-2.125.195-3.698 1.015-5.186.164-.298.774.02.74.358-.72 7.134 5.7 12.252 11.412 12.29zm2.155-7.24c1.374-.026 2.042.939.698 1.225-3.998.852-6.56-1.044-7.9-3.202-.2-.322-.569-1.202-.635-1.426a6.77 6.77 0 01-.23-2.333c.072-1.03.963-.658 1.211.344.15.602.604 1.651 1.058 2.311.827 1.203 1.352 1.495 2.414 2.134.479.287.992.518 1.214.581.471.139 1.189.384 2.17.366z" fill="#21609B"/></svg>