<svg width="65" height="65" fill="none" xmlns="http://www.w3.org/2000/svg"><path d="M0 32.5C0 14.55 14.55 0 32.5 0S65 14.55 65 32.5 50.45 65 32.5 65 0 50.45 0 32.5z" fill="#F7DF1E"/><path d="M17.09 54.319l.412-.249c2.497-1.511 5.57.38 8.49.38 2.007 0 3.272-.786 3.272-3.84V32.895a3.054 3.054 0 116.109 0v17.802c0 6.326-3.709 9.206-9.12 9.206-4.886 0-7.722-2.53-9.162-5.585m21.599-.654c2.767-1.602 6.2-.098 9.31.642a7.256 7.256 0 001.685.187c2.532 0 4.145-1.265 4.145-3.01 0-2.095-1.657-2.837-4.45-4.058l-1.527-.655c-4.407-1.876-7.33-4.232-7.33-9.206 0-4.581 3.49-8.072 8.944-8.072 2.966 0 5.295.789 7.125 2.736 1.022 1.088.574 2.783-.682 3.59-1.364.875-3.071.197-4.5-.567-.564-.3-1.197-.436-1.942-.436-1.79 0-2.924 1.135-2.924 2.618 0 1.833 1.135 2.575 3.752 3.709l1.527.654c5.193 2.226 8.116 4.494 8.116 9.6 0 5.497-4.32 8.508-10.123 8.508-5.672 0-9.337-2.706-11.125-6.24" fill="#000"/></svg>