<svg width="160" height="45" fill="none" xmlns="http://www.w3.org/2000/svg"><path fill-rule="evenodd" clip-rule="evenodd" d="M148.973 18.573c-.144.029-.288.342-.288.512a337.539 337.539 0 00-.058 6.2c0 .058.086.171.173.171.432.029 1.471.057 2.365.057 1.24 0 1.961-.17 2.364-.34 1.038-.513 1.529-1.622 1.529-2.845 0-2.76-1.961-3.812-4.874-3.812a4.702 4.702 0 00-1.211.057zm7.44 12.714c0-2.815-2.105-4.38-5.912-4.38-.173 0-1.384-.028-1.672.029-.087.028-.202.085-.202.17 0 2.02-.029 5.234.058 6.485.057.54.461 1.309.951 1.536.519.285 1.702.341 2.509.341 2.278 0 4.268-1.251 4.268-4.18zM142.735 17.56c.181-.379.578-.542.998-.522a56.09 56.09 0 002.731.056c2.105 0 3.778-.056 5.825-.056 2.509 0 5.97.881 5.97 4.579 0 1.82-1.298 3.27-3 3.982-.086.028-.086.085 0 .113 2.423.598 4.557 2.077 4.557 4.864 0 2.73-1.73 4.466-4.239 5.547-1.529.654-3.432.881-5.364.881-1.362 0-4.849-.146-7.098-.122-.341.003-.63-.042-.546-.373.143-.565.754-.885 1.329-.985a4.78 4.78 0 00.576-.14c.779-.2.865-.427.981-1.593.057-.996.057-4.523.057-7.026 0-3.442.029-5.774 0-6.912-.028-.881-.346-1.166-.98-1.337a40.446 40.446 0 00-1.24-.188c-.467-.064-.761-.342-.557-.768zM126.45 34.7c.693.54 2.048.768 3.259.768 1.557 0 3.115-.284 4.614-1.62 1.529-1.366 2.596-3.47 2.596-6.827 0-3.214-1.24-5.831-3.778-7.367-1.442-.882-3.288-1.251-5.422-1.251-.387 0-.764.01-1.084.058-.363.053-.819.23-.819.596-.058.569-.058 4.949-.058 7.509 0 2.645 0 6.342.058 6.77 0 .426.202 1.08.634 1.365zm-6.899-17.112c.192-.376.597-.577 1.019-.566.87.024 2.241.072 2.997.072 1.816 0 3.114-.085 6.546-.085 2.884 0 5.306.768 7.036 2.218 2.105 1.792 3.201 4.267 3.201 7.282 0 4.295-1.99 6.77-3.979 8.192-1.99 1.45-4.586 2.303-8.277 2.303-1.961 0-5.335-.057-8.132-.085-.018 0-.035-.01-.041-.026-.109-.291.25-1.226.473-1.254.75-.085.952-.114 1.327-.256.605-.227.721-.54.808-1.593.086-1.962.057-4.323.057-6.997 0-1.905.029-5.631-.029-6.826-.086-.995-.519-1.251-1.384-1.422-.291-.057-.646-.128-1.093-.193-.454-.067-.737-.356-.529-.764z" fill="#8E714E"/><path fill-rule="evenodd" clip-rule="evenodd" d="M85.01 35.81c-.53-.063-.952-.142-1.391-.292-.328-.112-.714-.3-.714-.647-.058-.995-.058-3.84-.058-5.745 0-1.536-.26-2.873-.922-3.812-.78-1.08-1.904-1.706-3.346-1.706-1.269 0-2.97.853-4.383 2.048-.029.028-.26.227-.23-.086 0-.313.057-.938.086-1.365.028-.393-.432-.484-.805-.355-1.158.402-3.078.825-3.867.895-.687.142-.863.788-.159 1.02.01.003.02.004.03.004.01 0 .018.002.027.004.771.227 1.287.481 1.688.736.288.227.26.54.26.796.028 2.134.028 5.404-.058 7.197-.028.696-.222.956-.718 1.073-.004.001-.007-.005-.003-.007.005-.002.002-.009-.002-.008-.375.08-.68.16-1.13.215a.109.109 0 00-.081.047c-.059.1-.091.296-.098.506-.015.48.404.727.883.71a75.69 75.69 0 012.62-.062c1.321 0 2.198.041 2.774.066.382.017.736-.178.783-.557.055-.448-.313-.705-.76-.77a4.106 4.106 0 01-.606-.133c-.519-.114-.663-.37-.692-.967-.057-1.507-.057-4.693-.057-6.855 0-.597.173-.882.346-1.052.663-.569 1.73-.967 2.681-.967.923 0 1.529.284 1.99.654.635.512.837 1.252.923 1.792.144 1.223.087 3.64.087 5.745 0 1.138-.087 1.423-.52 1.565-.137.058-.424.13-.785.188-.348.055-.659.212-.67.565-.017.49.42.783.909.765.67-.025 1.46-.068 2.479-.068 1.499 0 2.552.06 3.125.08.176.006.338-.08.374-.252.066-.316.074-.799-.01-.965zM93 24.945c-1.529 0-2.48 1.166-2.48 2.986 0 1.849.835 3.982 3.2 3.982.404 0 1.154-.17 1.5-.569.548-.512.923-1.536.923-2.617 0-2.36-1.183-3.782-3.143-3.782zm-.203 12.571c-.576 0-.98.17-1.24.313-1.21.768-1.759 1.508-1.759 2.39 0 .824.317 1.478 1.01 2.047.836.711 1.99 1.053 3.46 1.053 2.942 0 4.24-1.565 4.24-3.1 0-1.081-.549-1.793-1.673-2.19-.808-.342-2.278-.513-4.038-.513zM93 44.911c-1.76 0-3.029-.37-4.124-1.194-1.067-.797-1.529-1.991-1.529-2.816 0-.227.058-.853.577-1.422.317-.341 1.01-.996 2.653-2.105.058-.028.086-.057.086-.114s-.057-.114-.115-.142c-1.323-.5-1.74-1.298-1.866-1.759a.253.253 0 01-.008-.067.254.254 0 00-.004-.045c-.03-.163-.071-.326.177-.49.202-.142.49-.313.807-.511.49-.285 1.01-.598 1.327-.854.057-.057.057-.114.057-.17 0-.058-.057-.114-.115-.143-2.019-.654-3.028-2.133-3.028-4.352 0-1.45.663-2.759 1.846-3.583.807-.626 2.826-1.394 4.152-1.394h.087c1.355.028 2.105.313 3.172.683.577.199 1.125.284 1.875.284s1.218-.152 1.567-.372c.244-.154.544-.087.567.201.028.37-.087.91-.376 1.309-.23.313-.749.54-1.268.54h-.145a7.979 7.979 0 01-.684-.1.196.196 0 00-.126.016c-.035.018-.069.047-.066.087.002.034.016.071.033.117a.352.352 0 00.018.043c.012.024.021.05.027.076.06.287.164.993.164 1.183 0 2.333-.951 3.356-1.96 4.124a6.693 6.693 0 01-3.375 1.28c-.029 0-.144 0-.403.029-.145 0-.347.028-.376.028a.2.2 0 00-.056.008c-.246.071-.78.352-.78.817 0 .427.26.939 1.5 1.024.26.029.519.029.807.057 1.644.114 3.692.256 4.643.569 1.327.483 2.163 1.65 2.163 3.043 0 2.105-1.529 4.068-4.066 5.29-1.24.541-2.48.825-3.835.825zm16.437-19.824c-.606 0-1.154.142-1.557.426-1.125.683-1.702 2.048-1.702 4.04 0 3.725 1.904 6.342 4.614 6.342.808 0 1.442-.227 1.99-.682.836-.683 1.269-2.049 1.269-3.954 0-3.698-1.874-6.172-4.614-6.172zm.519 12.173c-4.902 0-6.661-3.555-6.661-6.883 0-2.332.951-4.124 2.854-5.404 1.356-.825 2.971-1.28 4.413-1.28 3.748 0 6.373 2.645 6.373 6.457 0 2.588-1.038 4.636-3.028 5.887-.952.626-2.595 1.223-3.951 1.223zm-51.39-12.173c-.605 0-1.153.142-1.557.426-1.124.683-1.701 2.048-1.701 4.04 0 3.725 1.903 6.342 4.614 6.342.808 0 1.442-.227 1.99-.682.836-.683 1.269-2.049 1.269-3.954 0-3.698-1.846-6.172-4.614-6.172zm.52 12.173c-4.903 0-6.662-3.555-6.662-6.883 0-2.332.952-4.124 2.855-5.404 1.356-.825 2.97-1.28 4.412-1.28 3.75 0 6.374 2.645 6.374 6.457 0 2.588-1.039 4.636-3.028 5.887-.923.626-2.567 1.223-3.951 1.223zm-32.294-.269c-.417-.028-.793-.253-.755-.67 0-.274.25-.446.52-.495.346-.062.583-.125.836-.187.577-.142.807-.455.836-1.166.087-1.707.087-4.95.058-7.196v-.057c0-.256 0-.569-.317-.796a6.545 6.545 0 00-1.73-.74c-.39-.128-.384-.686.01-.796a.984.984 0 01.134-.029c.827-.074 2.81-.535 3.957-.935.278-.096.599-.013.599.281l-.029.313c-.029.313-.058.683-.058 1.052 0 .114.116.2.231.2.122 0 .222-.096.32-.169 1.787-1.338 3.394-1.823 4.236-1.823 1.414 0 2.51.655 3.346 2.02.057.085.115.114.202.114.132 0 .227-.127.334-.206 1.647-1.208 3.277-1.928 4.366-1.928 2.682 0 4.268 1.963 4.268 5.29 0 .94 0 2.162-.029 3.272 0 .995-.028 1.905-.028 2.56 0 .598.79.827 1.377.943.242.047.512.09.811.137h.006c.015 0 .03.01.032.026.024.13 0 .407-.047.648-.052.267-.29.412-.563.4a5.524 5.524 0 01-.29-.021 43.13 43.13 0 00-2.191-.057c-1.35 0-2.206.016-2.93.049-.392.017-.74-.29-.729-.682.007-.26.206-.384.46-.44.274-.06.468-.119.69-.179.576-.17.72-.426.75-1.166 0-.54.115-5.148-.058-6.257-.173-1.138-1.039-2.475-2.942-2.475-.72 0-1.845.285-2.941 1.11a.502.502 0 00-.116.284.26.26 0 00.006.056c.11.59.11 1.269.11 2.305v1.848c0 1.28-.03 2.475 0 3.385 0 .365.127.566.296.692.235.175.54.218.828.275l.134.03c.498.109.897.474.76.966-.033.195-.227.281-.426.275-.887-.025-1.833-.048-3.15-.048-.432 0-1.182.029-1.817.029-.253 0-.499.007-.718.014-.355.01-.666-.2-.666-.555 0-.076.005-.147.014-.211.029-.208.208-.337.416-.354.058-.004.118-.008.176-.018.308-.052.572-.104.836-.156.49-.142.663-.398.692-1.024.087-1.422.173-5.49-.029-6.514-.345-1.65-1.297-2.474-2.826-2.474-.893 0-2.018.427-2.941 1.11-.144.113-.26.397-.26.653v1.679c0 2.047 0 4.607.03 5.717.028.34.143.74.807.881.144.029.375.086.663.114.32.053.562.286.54.609v.016c-.025.34-.322.537-.661.524a12.26 12.26 0 00-.485-.011 47.786 47.786 0 00-2.249-.057c-.917 0-1.596.023-2.145.049-.108.005-.216 0-.323-.012a5.4 5.4 0 00-.238-.022z" fill="#442D22"/><path fill-rule="evenodd" clip-rule="evenodd" d="M10.908 42.967a.571.571 0 01-.748.568.574.574 0 01-.387-.54c-.009-.859-.089-2.894-.614-4.353-.49-1.363-1.643-2.35-1.738-3.795-.737-11.238 1.002-59.185 5.497-1.411.154 1.977-1.44 3.818-1.848 5.758-.234.996-.205 2.74-.162 3.773z" fill="#fff"/><path fill-rule="evenodd" clip-rule="evenodd" d="M10.908 42.967a.571.571 0 01-.748.568.574.574 0 01-.387-.54c-.009-.859-.089-2.894-.614-4.353-.49-1.363-1.643-2.35-1.738-3.795-.737-11.238 1.002-59.185 5.497-1.411.154 1.977-1.44 3.818-1.848 5.758-.234.996-.205 2.74-.162 3.773z" fill="#A6A385"/><path fill-rule="evenodd" clip-rule="evenodd" d="M10.205 28.358c0 6.304 5.06 7.664 7.749 1.96 1.536-3.257 2.498-7.56 1.565-12.94C17.208 7.33 11.79 3.967 11.09 2.658a.867.867 0 00-.054-.088c-.329-.463-1.23-.247-1.222.32l.39 25.468z" fill="#fff"/><path fill-rule="evenodd" clip-rule="evenodd" d="M10.205 28.358c0 6.304 5.06 7.664 7.749 1.96 1.536-3.257 2.498-7.56 1.565-12.94C17.208 7.33 11.79 3.967 11.09 2.658a.867.867 0 00-.054-.088c-.329-.463-1.23-.247-1.222.32l.39 25.468z" fill="#499D4A"/><path fill-rule="evenodd" clip-rule="evenodd" d="M10.29 21.247c.288 8.97-8.757 11.803-10.081 2.926-.18-1.2-.251-2.47-.184-3.808C.568 8.942 7.322 3.28 8.728 2.188a.893.893 0 00.084-.079c.436-.465 1.144-.38 1.18.257.29 5.229.23 17.183.299 18.88z" fill="#fff"/><path fill-rule="evenodd" clip-rule="evenodd" d="M10.29 21.247c.288 8.97-8.757 11.803-10.081 2.926-.18-1.2-.251-2.47-.184-3.808C.568 8.942 7.322 3.28 8.728 2.188a.893.893 0 00.084-.079c.436-.465 1.144-.38 1.18.257.29 5.229.23 17.183.299 18.88z" fill="#58AA50"/></svg>