<svg width="72" height="71" fill="none" xmlns="http://www.w3.org/2000/svg"><path d="M.212 35.43c0 .258.012.517.036.774 1.027 11.11 8.164 24.805 17.817 30.4.213.123.431.237.653.341 10.07 4.734 25.53 5.402 35.148-.192.142-.083.282-.17.418-.261C63.7 60.2 71.77 46.754 71.77 35.429c0-11.283-8.101-24.728-17.564-30.873a9.014 9.014 0 00-.392-.241c-9.73-5.638-25.499-5.211-35.454.017a9.14 9.14 0 00-.346.192C8.21 10.225.212 24.09.212 35.429z" fill="#fff"/><path d="M56.538 25.517a38.57 38.57 0 00-.672-.226 1.585 1.585 0 01-1.058-1.824c1.549-7.554.536-13.639-2.921-15.642-3.315-1.921-8.737.082-14.213 4.87-.178.156-.356.315-.535.476a1.573 1.573 0 01-2.1.006c-5.74-5.12-11.492-7.278-14.946-5.269-3.312 1.927-4.293 7.647-2.899 14.806a2.433 2.433 0 01-1.598 2.76l-.284.099c-6.728 2.357-11.025 6.05-11.025 9.882 0 3.958 4.613 7.927 11.62 10.334a2.013 2.013 0 011.322 2.297c-.035.175-.07.35-.102.523-1.33 7.034-.291 12.62 3.012 14.534 3.412 1.977 9.138-.056 14.714-4.953a2.006 2.006 0 012.65.002c.132.117.263.231.394.345 5.401 4.67 10.736 6.556 14.036 4.636 3.409-1.983 4.516-7.983 3.078-15.283a34.21 34.21 0 00-.102-.5 1.366 1.366 0 01.903-1.578c7.285-2.425 12.025-6.346 12.025-10.357 0-3.845-4.435-7.564-11.299-9.938z" fill="#53C1DE"/><path d="M54.958 43.223c-.589.196-1.216-.14-1.415-.728a61.81 61.81 0 00-1.739-4.516 6.462 6.462 0 01-.023-5.031c.504-1.209.96-2.4 1.367-3.568.361-1.038 1.467-1.644 2.506-1.284 5.881 2.034 9.468 5.042 9.468 7.36 0 2.468-3.874 5.672-10.164 7.767zm-2.61 5.197c.636 3.228.727 6.146.305 8.428-.378 2.05-1.14 3.417-2.08 3.964-2.003 1.165-6.286-.35-10.905-4.343-.913-.79-.949-2.172-.173-3.097a63.663 63.663 0 002.265-2.874 6.576 6.576 0 014.436-2.593 61.548 61.548 0 004.261-.696c.86-.172 1.721.35 1.89 1.21zM25.953 60.61c-1.957.695-3.515.715-4.457.17-2.005-1.163-2.838-5.647-1.702-11.663.224-1.185 1.404-1.907 2.592-1.694 1.172.21 2.39.39 3.649.541a6.591 6.591 0 014.448 2.535 65.42 65.42 0 002.69 3.29c.605.69.583 1.742-.106 2.347-2.466 2.165-4.937 3.702-7.114 4.475zm-9.167-17.402c-3.099-1.064-5.658-2.448-7.412-3.957-1.576-1.356-2.372-2.703-2.372-3.796 0-2.325 3.45-5.29 9.204-7.307 1.202-.42 2.482.286 2.903 1.489.387 1.107.816 2.23 1.284 3.364a6.61 6.61 0 010 5.042 65.827 65.827 0 00-1.536 4.093c-.29.864-1.208 1.368-2.071 1.072zm3.073-21.018c-1.195-6.133-.402-10.76 1.594-11.92 2.127-1.238 6.828.526 11.783 4.947.539.48.559 1.308.08 1.848A64.01 64.01 0 0030.4 20.62a6.55 6.55 0 01-4.35 2.518c-1.296.17-2.559.373-3.78.607-1.1.21-2.196-.457-2.41-1.555zm27.412 6.802c-.741-1.287.295-2.89 1.755-2.615l.17.032a1.734 1.734 0 011.314 2.286l-.03.087c-.508 1.429-2.452 1.523-3.209.21zM34.77 19.54a1.732 1.732 0 012.642.004l.076.09c.972 1.148.08 2.864-1.425 2.864-1.487 0-2.366-1.7-1.4-2.832.035-.043.071-.085.107-.126zm-9.927 9.47l-.206.361c-.652 1.151-2.354 1.072-2.801-.173-.065-.18-.129-.36-.191-.54a1.725 1.725 0 011.314-2.268l.527-.097c1.31-.233 2.234 1.205 1.566 2.355l-.209.362zm.428 13.738c.614 1.04-.213 2.351-1.405 2.16a56.62 56.62 0 01-.891-.15 1.753 1.753 0 01-1.352-2.312c.11-.318.225-.638.343-.96.405-1.102 1.916-1.171 2.492-.148.13.232.263.463.396.695.138.24.277.478.417.715zm12.195 8.81c-.703.842-1.94.8-2.654-.033a48.316 48.316 0 01-.143-.167c-.963-1.133-.092-2.831 1.394-2.831 1.544 0 2.393 1.846 1.403 3.031zm9.817-9.544c.769-1.34 2.75-1.26 3.28.191l.037.104a1.773 1.773 0 01-1.344 2.355l-.177.033c-1.495.275-2.553-1.364-1.796-2.683zm-2.351-1.363a10.235 10.235 0 01-8.869 5.148c-1.525 0-3.018-.037-4.47-.109a2.541 2.541 0 01-1.998-1.142 77.683 77.683 0 01-2.392-3.882 77.125 77.125 0 01-2.157-4.013 2.535 2.535 0 01-.001-2.265 77.66 77.66 0 012.15-4.015 10.242 10.242 0 018.868-5.148c3.657 0 7.034 1.964 8.86 5.133a10.343 10.343 0 01.009 10.293zm5.6-30.463c2.128 1.233 2.956 6.207 1.619 12.728-.145.706-.851 1.137-1.557.99a64.17 64.17 0 00-4.5-.76 6.52 6.52 0 01-4.339-2.528 63.475 63.475 0 00-2.438-3.033c-.72-.839-.691-2.105.14-2.832 4.692-4.103 9.077-5.723 11.075-4.565z" fill="#fff"/><path d="M36.062 29.753c3.134 0 5.675 2.553 5.675 5.702 0 3.15-2.54 5.703-5.675 5.703-3.134 0-5.675-2.553-5.675-5.703 0-3.149 2.541-5.702 5.675-5.702z" fill="#53C1DE"/></svg>