<svg xmlns="http://www.w3.org/2000/svg" width="800" height="800" viewBox="0 0 462.847 462.847"><path d="M257.261 88.679c-1.635-2.034-3.428-3.405-5.281-4.258-5.586-4.25-13.649-5.319-20.253.794-74.754 69.216-153.912 133.549-227.058 204.52-4.961 4.81-5.558 10.542-3.702 15.463.363 2.828 1.485 5.683 3.702 8.333 17.61 21.018 36.122 41.223 55.467 60.667 8.325 8.363 19.296 4.219 24.138-3.494 48.362-40.649 96.253-87.062 144.664-127.66 46.263 46.052 98.673 90.438 146.659 134.622 5.383 4.951 11.73 5.149 16.92 2.772 4.936-.376 9.455-3.361 12.781-7.662 15.615-20.216 32.077-39.746 49.231-58.677 7.814-4.763 12.126-15.884 3.793-24.358-66.495-67.638-141.436-126.845-201.061-201.062zm129.732 257.346c-47.073-42.157-97.574-85.62-141.874-130.824-2.306-2.356-4.834-3.656-7.373-4.248-5.578-3.786-13.348-4.674-19.883.779-49.129 41.015-97.627 87.976-146.558 129.219-12.002-12.446-23.577-25.293-34.901-38.364 66.443-63.515 137.316-122.143 205.155-184.145 55.127 66.511 122.171 121.356 183.386 182.017-13.086 14.834-25.694 30.043-37.952 45.566z"/></svg>